<svg xmlns="http://www.w3.org/2000/svg" width="191.99" height="36.553" viewBox="0 0 191.99 36.553"><defs><style>.a{fill:#101f38;}.a,.b{fill-rule:evenodd;}.b{fill:#947FFE;}</style></defs><g transform="translate(-8.008 -7)"><path class="a" d="M46.969,36.676v1.9h-5.08V27.16h5.08v1.9h-3.13v2.892h2.74v1.9h-2.74v2.826h3.13ZM35.6,31.845,33.89,29.989l7.337-7.953h-7.5l-3.588,3.889-1.632-1.77-.08-.086,3.822-4.146.379-.407H46.97Zm-5.3,2.041,1.713,1.859-4.518,4.9L8.01,19.518H22.35l4.2,4.552-.08.086-1.635,1.77-3.587-3.889H13.753l13.737,14.9ZM10.827,27.153a3.816,3.816,0,0,1,1.585.3,2.213,2.213,0,0,1,1,.888,2.714,2.714,0,0,1,.347,1.4v1.334a2.858,2.858,0,0,1-.347,1.442,2.2,2.2,0,0,1-1.009.913l-.014.006,1.692,5.136H11.99l-1.414-4.828H9.922v4.828H8.008V27.153Zm-.9,4.728h1.023a.921.921,0,0,0,.433-.093.6.6,0,0,0,.281-.257.8.8,0,0,0,.093-.4V29.854a.964.964,0,0,0-.093-.446.643.643,0,0,0-.281-.286.924.924,0,0,0-.433-.1H9.922Z" transform="translate(0 -7.489)"/><path class="b" d="M9.954,36.62l9.337-10.127L21,28.348l-7.252,7.861h7.494l3.5-3.8.7.756,1.012,1.1-3.738,4.054-.376.407H8.008Zm13.1-14.212,3.506-3.8L27.49,17.6l.927,1.006L45.026,36.62l1.942,2.109H32.631l-.379-.408-3.735-4.054,1.012-1.1.7-.756,3.5,3.8h7.5L27.49,21.312l-2.722,2.951Zm.5-10.38h2.37V7h-2.37v5.028Zm0,31.525h2.37V38.525h-2.37v5.026Zm5.493-31.525h2.365V7H29.052Zm0,31.523h2.365V38.525H29.052Z" transform="translate(0 0)"/><path class="a" d="M258.025,48.62l-4.418-7.64,4.207-7.258h-3.848l-2.284,3.936L249.4,33.722H245.55l4.208,7.258-4.418,7.64h3.848l2.5-4.3,2.5,4.3h3.848Zm7.7.3a7.318,7.318,0,0,0,6.343-3.448l-2.918-1.7a3.8,3.8,0,0,1-3.425,1.83,4.11,4.11,0,0,1-4.313-4.427,4.11,4.11,0,0,1,4.313-4.427,3.82,3.82,0,0,1,3.425,1.83l2.918-1.7a7.37,7.37,0,0,0-6.343-3.448,7.528,7.528,0,0,0-7.7,7.747A7.528,7.528,0,0,0,265.721,48.917Zm15.963-15.2v5.7h-4.652v-5.7h-3.383v14.9h3.383V42.7h4.652v5.916h3.383v-14.9h-3.383Zm15.329,14.9h3.7l-5.033-14.9h-4.313l-5.033,14.9h3.7l.74-2.341h5.5Zm-5.222-5.534,1.732-5.469,1.734,5.47h-3.468Zm18.436-9.364v8.087l-5.71-8.086H301.98v14.9h3.383V40.532l5.709,8.087h2.537v-14.9h-3.383Zm20.573,6.6h-7.422V43.3h3.954a3.676,3.676,0,0,1-3.785,2.3c-2.875,0-4.652-1.852-4.652-4.384a4.269,4.269,0,0,1,4.356-4.469,4.22,4.22,0,0,1,3.615,1.745l2.876-1.66a7.559,7.559,0,0,0-6.47-3.405,7.749,7.749,0,1,0,.233,15.494A6.94,6.94,0,0,0,330.8,41.6V40.319Zm5.285,5.021V42.7h5.286V39.468h-5.287V37H341.9V33.722h-9.2v14.9H342V45.342h-5.92Z" transform="translate(-142.005 -15.809)"/><path class="b" d="M141.783,49.065h3.637l-3.15-5.47A4.913,4.913,0,0,0,145,39.275a5.079,5.079,0,0,0-5.075-5.108H134v14.9h3.383v-4.9h1.607Zm-4.4-11.706h2.537a1.922,1.922,0,0,1,0,3.831h-2.537V37.359Zm19.028,11.706h3.7l-5.031-14.9h-4.313l-5.032,14.9h3.7l.74-2.341h5.5Zm-5.222-5.534,1.734-5.47,1.734,5.47Zm15.794-9.364h-5.6v14.9h3.383V44.382h2.22a5.108,5.108,0,1,0,0-10.216Zm0,7.023h-2.22V37.359h2.22a1.916,1.916,0,0,1,0,3.831Zm6.871-7.023v14.9h3.383v-14.9Z" transform="translate(-75.386 -16.255)"/></g></svg>